<svg xmlns="http://www.w3.org/2000/svg" viewBox="0 0 360 432" width="360" height="432">
  <rect class="bg" x="0" y="0" width="360" height="432"/>
  <style>
    .bg{fill:#ffffff}
    .bone{fill:#ECE3D0;stroke:#A9946A;stroke-width:2;stroke-linejoin:round}
    .bone2{fill:#F5EFE1;stroke:#C3B48E;stroke-width:1.6;stroke-linejoin:round}
    .A{stroke:#2563EB;stroke-width:3;fill:none;stroke-linecap:round}
    .B{stroke:#DC2626;stroke-width:3;fill:none;stroke-linecap:round}
    .C{stroke:#94A3B8;stroke-width:1.6;stroke-dasharray:6 4;fill:none}
    .arc{stroke:#0E9F6E;stroke-width:2.6;fill:none}
    .dist{stroke:#7C3AED;stroke-width:2.6;fill:none}
    .ptl{fill:#334155;stroke:#fff;stroke-width:1.5}
    .t{font:700 15px system-ui,-apple-system,Segoe UI,Roboto,sans-serif;fill:#0F172A}
    .s{font:400 11px system-ui,-apple-system,Segoe UI,Roboto,sans-serif;fill:#64748B}
    .lA{font:600 12px system-ui,sans-serif;fill:#2563EB}
    .lB{font:600 12px system-ui,sans-serif;fill:#DC2626}
    .lC{font:600 12px system-ui,sans-serif;fill:#7C3AED}
    .v{font:800 15px system-ui,sans-serif;fill:#0E9F6E}
    .l{font:500 12px system-ui,sans-serif;fill:#334155}
  </style>

  <defs>
    <marker id="ah" markerWidth="10" markerHeight="10" refX="7.5" refY="5" orient="auto">
      <path d="M0 0 L10 5 L0 10 z" fill="#7C3AED"/></marker>
    <marker id="ahs" markerWidth="10" markerHeight="10" refX="2.5" refY="5" orient="auto">
      <path d="M10 0 L0 5 L10 10 z" fill="#7C3AED"/></marker>
  </defs>

  <text class="t" x="16" y="28">CCD angle (neck–shaft)</text>
  <text class="s" x="16" y="46">Coronal plane — femoral neck axis vs shaft axis</text>
  <polygon class="bone" points="156.0,196.0 206.0,188.0 232.0,418.0 188.0,418.0"/>
  <path class="bone" d="M196 176 Q236 168 226 210 Q206 206 196 196 Z"/>
  <polygon class="bone" points="88.8,179.5 180.8,229.5 199.2,198.5 107.2,148.5"/>
  <circle class="bone" cx="98.0" cy="164.0" r="30.0"/>
  <line class="A" x1="182.0" y1="214.0" x2="103.2" y2="167.1"/>
  <line class="B" x1="180.0" y1="176.0" x2="210.0" y2="418.0"/>
  <path class="arc" d="M137.3 187.4 A52 52 0 0 0 189.1 265.5"/>
  <circle class="ptl" cx="98.0" cy="164.0" r="4.5"/>
  <circle class="ptl" cx="182.0" cy="214.0" r="4"/>
  <text class="v" x="104.0" y="258.0" text-anchor="start">≈127°</text>
  <text class="lA" x="66.0" y="138.0" text-anchor="start">neck axis</text>
  <text class="lB" x="232.0" y="320.0" text-anchor="end">shaft axis</text>
  <text class="s" x="16" y="418">Neck–shaft angle, reported as the obtuse value.</text>
</svg>
