<svg xmlns="http://www.w3.org/2000/svg" viewBox="0 0 300 520" width="300" height="520">
  <rect class="bg" x="0" y="0" width="300" height="520"/>
  <style>
    .bg{fill:#ffffff}
    .bone{fill:#ECE3D0;stroke:#A9946A;stroke-width:2;stroke-linejoin:round}
    .bone2{fill:#F5EFE1;stroke:#C3B48E;stroke-width:1.6;stroke-linejoin:round}
    .A{stroke:#2563EB;stroke-width:3;fill:none;stroke-linecap:round}
    .B{stroke:#DC2626;stroke-width:3;fill:none;stroke-linecap:round}
    .C{stroke:#94A3B8;stroke-width:1.6;stroke-dasharray:6 4;fill:none}
    .arc{stroke:#0E9F6E;stroke-width:2.6;fill:none}
    .dist{stroke:#7C3AED;stroke-width:2.6;fill:none}
    .ptl{fill:#334155;stroke:#fff;stroke-width:1.5}
    .t{font:700 15px system-ui,-apple-system,Segoe UI,Roboto,sans-serif;fill:#0F172A}
    .s{font:400 11px system-ui,-apple-system,Segoe UI,Roboto,sans-serif;fill:#64748B}
    .lA{font:600 12px system-ui,sans-serif;fill:#2563EB}
    .lB{font:600 12px system-ui,sans-serif;fill:#DC2626}
    .lC{font:600 12px system-ui,sans-serif;fill:#7C3AED}
    .v{font:800 15px system-ui,sans-serif;fill:#0E9F6E}
    .l{font:500 12px system-ui,sans-serif;fill:#334155}
  </style>

  <defs>
    <marker id="ah" markerWidth="10" markerHeight="10" refX="7.5" refY="5" orient="auto">
      <path d="M0 0 L10 5 L0 10 z" fill="#7C3AED"/></marker>
    <marker id="ahs" markerWidth="10" markerHeight="10" refX="2.5" refY="5" orient="auto">
      <path d="M10 0 L0 5 L10 10 z" fill="#7C3AED"/></marker>
  </defs>

  <text class="t" x="16" y="28">Mechanical-axis deviation (MAD)</text>
  <text class="s" x="16" y="46">Coronal — knee centre to Mikulicz line</text>
  <polygon class="bone2" points="106.0,100.0 142.0,108.0 168.0,292.0 140.0,296.0"/>
  <polygon class="bone2" points="142.0,302.0 168.0,298.0 158.0,486.0 134.0,486.0"/>
  <circle class="bone2" cx="116.0" cy="96.0" r="20.0"/>
  <line class="A" x1="120.0" y1="92.0" x2="154.0" y2="486.0"/>
  <line class="dist" x1="137.7" y1="297.1" x2="150.0" y2="296.0" marker-start="url(#ahs)" marker-end="url(#ah)"/>
  <circle class="ptl" cx="120.0" cy="92.0" r="4.5"/>
  <circle class="ptl" cx="154.0" cy="486.0" r="4.5"/>
  <circle class="ptl" cx="150.0" cy="296.0" r="4.5"/>
  <circle class="ptl" cx="137.7" cy="297.1" r="4"/>
  <text class="lA" x="128.0" y="86.0" text-anchor="start">hip</text>
  <text class="lA" x="162.0" y="492.0" text-anchor="start">ankle</text>
  <text class="l" x="162.0" y="300.0" text-anchor="start">knee</text>
  <text class="lC" x="164.0" y="318.0" text-anchor="start">≈8 mm medial</text>
  <text class="s" x="16" y="506">Knee centre to the Mikulicz (hip→ankle) line.</text>
</svg>
